inDegrees=no
num_controls=7
num_derivatives=13
num_iterations=53
num_multipliers=7
num_parameters=0
num_slacks=7
num_states=26
objective=0.432061
objective_accelerations=0.052335
objective_balance=0.006894
objective_effort=0.033179
objective_height=0.338503
objective_ligament=0.001151
solver_duration=690.842373
status=Solve_Succeeded
success=true
DataType=double
version=3
OpenSimVersion=4.5
endheader
time	/jointset/ground_pelvis/pelvis_tilt/value	/jointset/ground_pelvis/pelvis_tx/value	/jointset/ground_pelvis/pelvis_ty/value	/jointset/hip_l/hip_flexion_l/value	/jointset/hip_l/hip_adduction_l/value	/jointset/hip_l/hip_rotation_l/value	/jointset/back/lumbar_extension/value	/jointset/patellofemoral_l/patellar_flexion_l/value	/jointset/knee_l/knee_flexion_l/value	/jointset/knee_l/knee_adduction_l/value	/jointset/knee_l/knee_rotation_l/value	/jointset/ankle_l/ankle_angle_l/value	/jointset/subtalar_l/subtalar_angle_l/value	/jointset/ground_pelvis/pelvis_tilt/speed	/jointset/ground_pelvis/pelvis_tx/speed	/jointset/ground_pelvis/pelvis_ty/speed	/jointset/hip_l/hip_flexion_l/speed	/jointset/hip_l/hip_adduction_l/speed	/jointset/hip_l/hip_rotation_l/speed	/jointset/back/lumbar_extension/speed	/jointset/patellofemoral_l/patellar_flexion_l/speed	/jointset/knee_l/knee_flexion_l/speed	/jointset/knee_l/knee_adduction_l/speed	/jointset/knee_l/knee_rotation_l/speed	/jointset/ankle_l/ankle_angle_l/speed	/jointset/subtalar_l/subtalar_angle_l/speed	/forceset/tau_hip_flexion_l	/forceset/tau_hip_adduction_l	/forceset/tau_hip_rotation_l	/forceset/tau_knee_flexion_l	/forceset/tau_ankle_angle_l	/forceset/tau_subtalar_angle_l	/forceset/tau_lumbar_extension	lambda_cid13_p0	lambda_cid13_p1	lambda_cid13_p2	lambda_cid13_p3	lambda_cid13_p4	lambda_cid13_p5	lambda_cid14_p0	/jointset/ground_pelvis/pelvis_tilt/accel	/jointset/ground_pelvis/pelvis_tx/accel	/jointset/ground_pelvis/pelvis_ty/accel	/jointset/hip_l/hip_flexion_l/accel	/jointset/hip_l/hip_adduction_l/accel	/jointset/hip_l/hip_rotation_l/accel	/jointset/back/lumbar_extension/accel	/jointset/patellofemoral_l/patellar_flexion_l/accel	/jointset/knee_l/knee_flexion_l/accel	/jointset/knee_l/knee_adduction_l/accel	/jointset/knee_l/knee_rotation_l/accel	/jointset/ankle_l/ankle_angle_l/accel	/jointset/subtalar_l/subtalar_angle_l/accel	gamma_cid13_p0	gamma_cid13_p1	gamma_cid13_p2	gamma_cid13_p3	gamma_cid13_p4	gamma_cid13_p5	gamma_cid14_p0
0	-0.159058133761969	0.05816243881767543	0.8979619778627874	0.3774924667018715	-0.2596711724239831	-0.2638301503939297	-0.01265067647494873	0.03223648243717753	0.03223648243721463	-0.1745301674678202	0.1658056846942784	-0.04231377076293093	-0.009901880467921719	0	0	0	0	0	0	0	0	0	0	0	0	0	0.1175542551016237	-0.01421466949314776	-0.04317998881177287	-0.2556015550256601	0.2565568626759959	-0.08412391398221099	-0.07057990212988613	38.93123733198708	22.26895275916722	4.55640496055752	5.566997423169274	-585.4307153454776	-26.90076835474132	-38.80281443007959	-2.683521771587339	-2.045829851457946	-1.029656937187347	11.50430411807309	-1.491156533523686	3.770697244830655	-6.047650143364818	10.60247565446696	10.60247565446728	-0.03065021699552656	-0.05881600722161668	1.940302017043689	-1.074341115413277	-1.125051997796844e-07	5.742113477737814e-08	5.466217062839955e-07	-3.391233314763701e-08	5.843529636878798e-08	-2.026679758021447e-07	-9.505900679025543e-08
0.01	-0.1591913769267248	0.05806531907934798	0.8979118069809636	0.3780562199122679	-0.2597417764410847	-0.2636441567443932	-0.01295018954903976	0.03275855871400567	0.03275855871386561	-0.1745261271482233	0.1658024196540308	-0.04221266518010083	-0.009950719910778489	-0.02701813975769999	-0.01894006267142878	-0.009989964930296767	0.1125575624337486	-0.01370966270011837	0.03678894361285692	-0.05914607815845112	0.1043443476470655	0.1043443476470653	0.001526094429966432	-0.0002975897896364176	0.02088653593262206	-0.009206470404676804	0.1295031677393276	-0.02649275815476232	-0.04743041029626469	-0.2852114395548134	0.3051136758823519	-0.08657701804506016	-0.07686899318988903	54.47301422774017	21.01445323681316	4.297943077973087	-9.234104638595865	-588.7548051568735	-31.5901167720854	-38.81792994814525	-2.766416275167289	-1.745518514521082	-0.9770228689840821	11.10249164773234	-1.249267463095045	3.57143676314306	-5.734606147008694	10.33979717527692	10.33979717527726	0.3520154999721302	0.03799563053068254	2.26264016295613	-0.7596597135943286	-9.120798041716354e-08	2.83283030118271e-07	2.11467211788141e-07	2.589665451504542e-08	-5.746929002287918e-08	1.800819835830181e-08	-2.565221012458031e-08
0.02	-0.1596058927286788	0.05779331390639566	0.8977630651302323	0.3797397506151679	-0.2599371563501363	-0.2631025848899885	-0.01381846730377458	0.03432195503827733	0.03432195503830639	-0.1744852706392209	0.1658068239352028	-0.04188273208163509	-0.01007479599980847	-0.05625452740730172	-0.03497708692497165	-0.01971419378160762	0.2239554985358034	-0.0249551783939174	0.07111564097086964	-0.1137529361135149	0.208264009512078	0.2082640095120696	0.007363237939075321	0.001533864235312149	0.04576550312853894	-0.01504732923339215	0.1414520803766308	-0.03877084681623871	-0.05168083177938316	-0.3148213240839285	0.3536704890889041	-0.08903012210775185	-0.08315808425061808	70.10775305917031	19.74754174248885	4.037050157788688	-24.23784056060031	-590.7254888559474	-36.13883725039764	-38.86280011656284	-3.127171349965499	-1.465222167882969	-0.9765097213902513	11.27237885173446	-0.9983271322603546	3.278247993861473	-5.139806102685606	10.51753849805626	10.51753849805495	0.8315595988320175	0.3669927556955839	2.738788269699664	-0.401218800222199	-6.991076105464271e-08	5.091449254591638e-07	-1.236872827077134e-07	8.570564217772785e-08	-1.733738764145463e-07	2.386843725187483e-07	4.37545865410948e-08
0.03	-0.16031934650964	0.05737092394160405	0.8975178721587995	0.3825274033717023	-0.260238167536805	-0.2622292795418481	-0.01521025640315985	0.03691569562947915	0.0369156956296119	-0.1743771730481009	0.1658374183522393	-0.0412945382263771	-0.01024833608412643	-0.0863388735660796	-0.04946915612338051	-0.02932972678103871	0.3329565664188508	-0.03539144079937934	0.1032583263738793	-0.1638759395085843	0.3097331653796143	0.3097331653796296	0.01370518953745271	0.004621217378719278	0.07149097054584404	-0.01989320037781996	0.1298984394164104	-0.03256991047635234	-0.04922888390230921	-0.2988542731334879	0.3309309385011608	-0.08604505086648738	-0.07437880800371099	62.90745067841029	19.57482625440024	4.221093553103149	-19.25735105873294	-590.5039098347814	-34.75517149750097	-38.93638498131293	-2.934468137815867	-1.436419432103667	-0.9549091738786525	10.62118839593511	-1.087982522504417	3.139255660896633	-4.839205815221873	9.848953591795599	9.848953591800218	0.4529135103467168	0.2850865559050909	2.432076170479245	-0.5612116026473533	-7.340213893112247e-08	3.008798852519382e-07	-1.435666258628551e-08	8.125734287157931e-08	-3.087047808737126e-07	1.381053780955386e-07	1.622968177173332e-08
0.04	-0.1613307241301676	0.05680456925756774	0.8971763570404399	0.3863865103350596	-0.2606478826930814	-0.2610431519703136	-0.01708140720794813	0.0405015976718431	0.04050159767187617	-0.1742221758271591	0.1658999822929313	-0.04046055965843558	-0.01047732294611436	-0.115839295283925	-0.0637700307739094	-0.0389786231670488	0.4382463398756079	-0.04669597231764385	0.1336800856719418	-0.2096252771955188	0.4066962996748145	0.4066962996748594	0.01674316393612335	0.007927769011815935	0.09492244567241095	-0.02613668476604007	0.1183447984590688	-0.02636897413595598	-0.04677693602633938	-0.2828872221811347	0.3081913879141531	-0.08305997962454405	-0.06559953175512888	55.79106053575043	19.39509684846921	4.397488000919358	-14.48146492444327	-589.074269309641	-33.2397207913837	-39.03716235358384	-3.010386461776923	-1.426983258308957	-0.9831823987061119	10.53011996647652	-1.171980954821144	2.934062772871735	-4.265072961056892	9.616334183588904	9.616334183588753	0.1707641588902329	0.4108324536335742	2.279989811549358	-0.6807414489815421	-7.74046219053136e-08	8.366377420866876e-08	1.041385990736432e-07	7.548415105060949e-08	-4.444362279734459e-07	3.09025657633875e-08	-1.329381477979388e-08
0.05	-0.1626352385361123	0.05609679580192831	0.8967379850843394	0.3912818812745992	-0.2611737134627862	-0.259558391398103	-0.01939042796469102	0.04503631272328196	0.04503631272337624	-0.174050380683658	0.1659943515855672	-0.03940166568890166	-0.01077408393868145	-0.1450308077391859	-0.07768664360817043	-0.04871196524394093	0.5403182492682357	-0.05848176010854707	0.1633301792881005	-0.2517150943107285	0.499595455739436	0.4995954557394611	0.01735707476830858	0.01068317146261922	0.1166591423485039	-0.03328273916788355	0.1131630739910982	-0.02470387627737484	-0.0459955456460432	-0.279224993311088	0.3031853188302766	-0.08151202462638493	-0.06127850071084014	54.32241807300577	18.98785828020095	4.453399159963581	-14.08878305669683	-588.2546770862953	-33.11657127336618	-39.16248305434144	-2.868615121054807	-1.359282738883236	-0.9709296750267141	9.969279481388082	-1.183619568765778	2.98918820884948	-4.111369106643582	9.029020982261034	9.029020982259286	-0.03209510532794894	0.1684402898696583	2.090924935383104	-0.7416443391240199	-1.308962427831955e-07	6.534068886081258e-08	2.525321804767086e-07	1.021944109435999e-07	-5.512753935515184e-07	-3.358188887610217e-08	-4.232697398351822e-08
0.06	-0.1642306843634879	0.05525279972936486	0.8962017757949006	0.3971826819193018	-0.261817750485889	-0.2577753887791719	-0.02210643349653649	0.05048048226833186	0.050480482268375	-0.1738802063619103	0.1661083841323882	-0.03813132168465387	-0.0111443268559376	-0.1740255795401425	-0.09101455415871541	-0.05854608983484912	0.6393322808903095	-0.07033722300108432	0.1933284950187021	-0.291022232221275	0.5885871983784511	0.5885871983784683	0.01641899957202312	0.01186041987604531	0.1372124526142627	-0.04083306970330619	0.1079813495246767	-0.02303877841892607	-0.04521415526606892	-0.2755627644407428	0.2981792497463223	-0.07996406962836634	-0.05695746966507973	52.92644465128181	18.57202748138333	4.505964781820214	-13.87778752871105	-586.3926393837172	-32.88476731021198	-39.30909873151192	-2.971038330914093	-1.309242801567509	-1.003338901509372	9.918544412365868	-1.185915975148184	3.003707195760051	-3.70853712012262	8.834851498467399	8.834851498469677	-0.1396330468041792	0.09520164615822467	2.043312529480137	-0.7615966756981062	-1.864716168359696e-07	5.539204670013172e-08	4.021846385005377e-07	1.302723951192835e-07	-6.568980420128893e-07	-9.626767582326917e-08	-7.133948740417716e-08
0.07000000000000001	-0.166112191106558	0.05427835239741748	0.8955669206686172	0.4040571603508449	-0.2625786387162982	-0.2556922796063594	-0.02520455738507909	0.05679758561229557	0.05679758561228805	-0.1737230243261024	0.1662285691934915	-0.03665961793145511	-0.01158968734154005	-0.2019052140763808	-0.1037848536381428	-0.06841278962669887	0.7348422694435811	-0.08164569337853624	0.2231845007287758	-0.3284825320861138	0.6743716570358577	0.6743716570358426	0.01516534997733438	0.01211848986687312	0.1570827562547548	-0.04806902194300593	0.1009313789240878	-0.01998354519718575	-0.04407374055868996	-0.2696135925883038	0.2897455291013227	-0.07793445232029909	-0.05146447028574626	50.41223869927019	18.12369939674857	4.58553129616831	-12.88630200585586	-585.037814903025	-32.46409939256048	-39.47350996341657	-2.640850698623078	-1.24738834158743	-0.9766463087409887	9.259034305848825	-1.074133296066291	2.960154147338018	-3.746774405839385	8.380985662740798	8.380985662735046	-0.09599056121885079	-0.01767322674910788	1.95204587106378	-0.6791474533812346	-1.973715640185694e-07	1.235988909049477e-07	3.824088802200557e-07	1.457937553800486e-07	-7.034275288044075e-07	-5.620075321045184e-08	-6.49488206785688e-08
0.08	-0.1682613791318657	0.05317890910658352	0.8948337363862691	0.4118651003137531	-0.2634467757958822	-0.2533138889987005	-0.02867368386949783	0.06395868206541473	0.06395868206545537	-0.1735739307153545	0.1663495783741543	-0.03499057982390056	-0.01210231794059587	-0.2275618359578562	-0.1160137459360338	-0.07821192104788112	0.8260245871586938	-0.09178699283686668	0.252384781987088	-0.3652227513976793	0.7573858202277012	0.7573858202276221	0.01480131456589993	0.01202524376589772	0.1766793234843647	-0.0542870923937593	0.09388140832429812	-0.0169283119755878	-0.04293332585045952	-0.2636644207361688	0.2813118084560949	-0.07590483501243149	-0.04597147090544763	47.9618217617704	17.67029902172765	4.658945542453409	-12.05863261219363	-582.7717074494768	-31.94666273448424	-39.65242493342078	-2.526435799959585	-1.200961365261695	-0.9898252273759129	9.0530102447342	-0.9524817913241131	2.872562305407514	-3.56452100946633	8.280792405354505	8.280792405350475	0.03828978984642545	0.02493842779764429	1.988565247301611	-0.5580203179094719	-2.053892255966418e-07	1.968480245526988e-07	3.517022692747794e-07	1.605050108721094e-07	-7.461445535527093e-07	-9.50462352924842e-09	-5.627407781449159e-08
